# xmcd CD database file
#
# Track frame offsets:
#	150
#	5385
#	8005
#	10827
#	16105
#	20315
#	23662
#	27607
#	30945
#	35102
#	38417
#	42945
#	46195
#	51157
#	54472
#	58067
#	61175
#	65562
#	69945
#	72887
#	76442
#	81815
#	86400
#	90367
#	94212
#	97495
#	100625
#	104547
#	108070
#	111117
#	115110
#	118282
#	122592
#	126227
#	129895
#	134712
#	138440
#	142052
#	146892
#	150152
#	154250
#	157567
#	161307
#	165667
#	169465
#	172680
#	177367
#	181275
#	185122
#	189077
#	193152
#	196377
#	200125
#	203495
#	208317
#	211972
#	216260
#	220300
#	224422
#	228797
#	233562
#
# Disc length: 3135 seconds
#
# Revision: 0
# Processed by: cddbd v1.5.2PL0 Copyright (c) Steve Scherf et al.
# Submitted via: CDex 1.70beta2
#
DISCID=4b0c3d3d
DTITLE=STEVE and ROBIN SORESI - 英会話 ペラペラビジネス100 (Disc-1)
DYEAR=2002
DGENRE=語学
TTITLE0=First Contact_Sorry?
TTITLE1=First Contact_Have a seat.
TTITLE2=First Contact_Hi./I'm...
TTITLE3=First Contact_May I have Sales, please?
TTITLE4=First Contact_Would you say that again, please?
TTITLE5=First Contact_Just a moment, please.
TTITLE6=First Contact_I'm sorry, but...
TTITLE7=First Contact_I'm not sure.
TTITLE8=First Contact_It's crowded, isn't it?
TTITLE9=First Contact_See you again, sometime.
TTITLE10=Light Contact_May I ask how much this is?
TTITLE11=Light Contact_I'll do my best.
TTITLE12=Light Contact_There's a problem with...
TTITLE13=Light Contact_I'm sorry to bother you.
TTITLE14=Light Contact_I'm sorry about that.
TTITLE15=Light Contact_Don't worry about it.
TTITLE16=Light Contact_Please don't.
TTITLE17=Light Contact_This is a little...
TTITLE18=Light Contact_When will it be ready?
TTITLE19=Light Contact_I'd like a better price.
TTITLE20=Light Contact_Is that OK?
TTITLE21=Light Contact_Have you ever heard of...
TTITLE22=Light Contact_～is...right now.
TTITLE23=Light Contact_I'm sending it just in case.
TTITLE24=Light Contact_This is for...
TTITLE25=Light Contact_How was...?
TTITLE26=Light Contact_I have a hangover.
TTITLE27=Light Contact_Would you like a tour?
TTITLE28=Light Contact_It's so nice to see you again.
TTITLE29=Light Contact_Thank you so much for your time today.
TTITLE30=Regular Contact_How's... going?
TTITLE31=Regular Contact_Would you...when you have a chance?
TTITLE32=Regular Contact_Can you...?
TTITLE33=Regular Contact_We can't...
TTITLE34=Regular Contact_Do you remember...?
TTITLE35=Regular Contact_Did you see...?
TTITLE36=Regular Contact_Why don't we...?
TTITLE37=Regular Contact_I'd really appreciate it if...
TTITLE38=Regular Contact_I look forward to that.
TTITLE39=Regular Contact_If there're any..., please let me know.
TTITLE40=Regular Contact_I'll...
TTITLE41=Regular Contact_I hope S+V.
TTITLE42=Regular Contact_I wish...
TTITLE43=Regular Contact_I've been...all day.
TTITLE44=Regular Contact_I'm afraid so/not.
TTITLE45=Regular Contact_Where can I get...?
TTITLE46=Regular Contact_Do you have...?
TTITLE47=Regular Contact_What's...like?
TTITLE48=Regular Contact_Do you think S+V?
TTITLE49=Regular Contact_I think S+V.
TTITLE50=Regular Contact_What if S+V?
TTITLE51=Regular Contact_I don't think we should...
TTITLE52=Regular Contact_That's a good question
TTITLE53=Regular Contact_I'm concerned about...
TTITLE54=Regular Contact_It's just a...
TTITLE55=Regular Contact_I just...
TTITLE56=Regular Contact_It's gotten so...
TTITLE57=Regular Contact_I got a...
TTITLE58=Regular Contact_We decided to...
TTITLE59=Regular Contact_We had a...
TTITLE60=End of CD-1
EXTD=YEAR: 2002
EXTT0=
EXTT1=
EXTT2=
EXTT3=
EXTT4=
EXTT5=
EXTT6=
EXTT7=
EXTT8=
EXTT9=
EXTT10=
EXTT11=
EXTT12=
EXTT13=
EXTT14=
EXTT15=
EXTT16=
EXTT17=
EXTT18=
EXTT19=
EXTT20=
EXTT21=
EXTT22=
EXTT23=
EXTT24=
EXTT25=
EXTT26=
EXTT27=
EXTT28=
EXTT29=
EXTT30=
EXTT31=
EXTT32=
EXTT33=
EXTT34=
EXTT35=
EXTT36=
EXTT37=
EXTT38=
EXTT39=
EXTT40=
EXTT41=
EXTT42=
EXTT43=
EXTT44=
EXTT45=
EXTT46=
EXTT47=
EXTT48=
EXTT49=
EXTT50=
EXTT51=
EXTT52=
EXTT53=
EXTT54=
EXTT55=
EXTT56=
EXTT57=
EXTT58=
EXTT59=
EXTT60=
PLAYORDER=
